STARTFONT 2.3
FONT -FontForge-Tangerine-Book-R-Normal--9-90-72-72-P-33-ISO10646-1
SIZE 9 72 72  4
FONTBOUNDINGBOX 15 11 -3 -3
COMMENT "Generated by fontforge, http://fontforge.sourceforge.net"
COMMENT "Copyright (c) 2010 by Toshi Omagari. All rights reserved."
STARTPROPERTIES 40
FOUNDRY "FontForge"
FAMILY_NAME "Tangerine"
WEIGHT_NAME "Book"
SLANT "R"
SETWIDTH_NAME "Normal"
ADD_STYLE_NAME ""
PIXEL_SIZE 9
POINT_SIZE 90
RESOLUTION_X 72
RESOLUTION_Y 72
SPACING "P"
AVERAGE_WIDTH 33
CHARSET_REGISTRY "ISO10646"
CHARSET_ENCODING "1"
FONTNAME_REGISTRY ""
CHARSET_COLLECTIONS "ISO10646-1"
BITS_PER_PIXEL 4
FONT_NAME "Tangerine-Regular"
FACE_NAME "Tangerine Regular"
COPYRIGHT "Copyright (c) 2010 by Toshi Omagari. All rights reserved."
FONT_VERSION "1.3"
FONT_ASCENT 7
FONT_DESCENT 2
UNDERLINE_POSITION -1
UNDERLINE_THICKNESS 1
X_HEIGHT 1
CAP_HEIGHT 5
RAW_ASCENT 750
RAW_DESCENT 250
NORM_SPACE 1
RELATIVE_WEIGHT 40
RELATIVE_SETWIDTH 50
SUPERSCRIPT_X 0
SUPERSCRIPT_Y 4
SUPERSCRIPT_SIZE 5
SUBSCRIPT_X 0
SUBSCRIPT_Y 1
SUBSCRIPT_SIZE 5
AVG_LOWERCASE_WIDTH 22
AVG_UPPERCASE_WIDTH 62
ENDPROPERTIES
CHARS 233
STARTCHAR space
ENCODING 32
SWIDTH 150 0
DWIDTH 1 0
BBX 1 1 0 0
BITMAP
00
ENDCHAR
STARTCHAR exclam
ENCODING 33
SWIDTH 189 0
DWIDTH 2 0
BBX 3 6 0 0
BITMAP
0040
0150
0400
0300
0000
5000
ENDCHAR
STARTCHAR quotedbl
ENCODING 34
SWIDTH 214 0
DWIDTH 2 0
BBX 3 2 0 2
BITMAP
1410
2200
ENDCHAR
STARTCHAR numbersign
ENCODING 35
SWIDTH 289 0
DWIDTH 3 0
BBX 3 3 0 0
BITMAP
0330
3FA0
9810
ENDCHAR
STARTCHAR dollar
ENCODING 36
SWIDTH 269 0
DWIDTH 2 0
BBX 3 5 0 -1
BITMAP
0010
1620
0800
6500
1100
ENDCHAR
STARTCHAR percent
ENCODING 37
SWIDTH 388 0
DWIDTH 3 0
BBX 4 5 0 -1
BITMAP
0001
5630
3352
1361
2000
ENDCHAR
STARTCHAR ampersand
ENCODING 38
SWIDTH 507 0
DWIDTH 5 0
BBX 5 5 0 0
BITMAP
058000
053000
281000
630220
645410
ENDCHAR
STARTCHAR quotesingle
ENCODING 39
SWIDTH 120 0
DWIDTH 1 0
BBX 2 1 0 3
BITMAP
23
ENDCHAR
STARTCHAR parenleft
ENCODING 40
SWIDTH 250 0
DWIDTH 2 0
BBX 3 7 0 -1
BITMAP
0020
0220
0400
0500
2300
2200
0200
ENDCHAR
STARTCHAR parenright
ENCODING 41
SWIDTH 276 0
DWIDTH 2 0
BBX 3 7 0 -1
BITMAP
0020
0040
0050
0230
0400
0400
3000
ENDCHAR
STARTCHAR asterisk
ENCODING 42
SWIDTH 188 0
DWIDTH 2 0
BBX 2 3 0 1
BITMAP
13
33
11
ENDCHAR
STARTCHAR plus
ENCODING 43
SWIDTH 301 0
DWIDTH 3 0
BBX 3 3 0 0
BITMAP
0300
7F60
0300
ENDCHAR
STARTCHAR comma
ENCODING 44
SWIDTH 112 0
DWIDTH 1 0
BBX 1 1 0 0
BITMAP
30
ENDCHAR
STARTCHAR hyphen
ENCODING 45
SWIDTH 245 0
DWIDTH 2 0
BBX 2 1 0 1
BITMAP
7D
ENDCHAR
STARTCHAR period
ENCODING 46
SWIDTH 112 0
DWIDTH 1 0
BBX 1 1 0 0
BITMAP
20
ENDCHAR
STARTCHAR slash
ENCODING 47
SWIDTH 210 0
DWIDTH 2 0
BBX 5 7 -1 -1
BITMAP
000020
000300
001200
003000
021000
030000
100000
ENDCHAR
STARTCHAR zero
ENCODING 48
SWIDTH 349 0
DWIDTH 3 0
BBX 3 3 0 0
BITMAP
1590
4040
4520
ENDCHAR
STARTCHAR one
ENCODING 49
SWIDTH 189 0
DWIDTH 2 0
BBX 2 4 0 0
BITMAP
57
0A
34
60
ENDCHAR
STARTCHAR two
ENCODING 50
SWIDTH 277 0
DWIDTH 3 0
BBX 3 3 0 0
BITMAP
1440
0220
5610
ENDCHAR
STARTCHAR three
ENCODING 51
SWIDTH 253 0
DWIDTH 2 0
BBX 4 4 -1 -1
BITMAP
0143
0140
2180
5E60
ENDCHAR
STARTCHAR four
ENCODING 52
SWIDTH 363 0
DWIDTH 3 0
BBX 4 5 0 0
BITMAP
0015
0142
2251
3BE2
0320
ENDCHAR
STARTCHAR five
ENCODING 53
SWIDTH 250 0
DWIDTH 2 0
BBX 4 5 -1 -1
BITMAP
0001
0042
0490
1170
6D30
ENDCHAR
STARTCHAR six
ENCODING 54
SWIDTH 296 0
DWIDTH 3 0
BBX 4 5 0 0
BITMAP
01AB
0932
3520
6050
5410
ENDCHAR
STARTCHAR seven
ENCODING 55
SWIDTH 326 0
DWIDTH 3 0
BBX 4 4 0 -1
BITMAP
1ED2
2020
0000
4000
ENDCHAR
STARTCHAR eight
ENCODING 56
SWIDTH 305 0
DWIDTH 3 0
BBX 4 5 0 0
BITMAP
0030
0531
0650
5060
5430
ENDCHAR
STARTCHAR nine
ENCODING 57
SWIDTH 304 0
DWIDTH 3 0
BBX 4 5 -1 -2
BITMAP
0024
0528
06D6
1171
3E40
ENDCHAR
STARTCHAR colon
ENCODING 58
SWIDTH 156 0
DWIDTH 1 0
BBX 2 2 0 0
BITMAP
32
50
ENDCHAR
STARTCHAR semicolon
ENCODING 59
SWIDTH 156 0
DWIDTH 1 0
BBX 2 3 0 -1
BITMAP
32
30
20
ENDCHAR
STARTCHAR less
ENCODING 60
SWIDTH 301 0
DWIDTH 3 0
BBX 3 3 0 0
BITMAP
0010
3510
1400
ENDCHAR
STARTCHAR equal
ENCODING 61
SWIDTH 301 0
DWIDTH 3 0
BBX 3 1 0 0
BITMAP
9F40
ENDCHAR
STARTCHAR greater
ENCODING 62
SWIDTH 301 0
DWIDTH 3 0
BBX 2 1 1 1
BITMAP
72
ENDCHAR
STARTCHAR question
ENCODING 63
SWIDTH 285 0
DWIDTH 3 0
BBX 4 5 0 0
BITMAP
0254
0023
0400
0000
5000
ENDCHAR
STARTCHAR at
ENCODING 64
SWIDTH 492 0
DWIDTH 4 0
BBX 4 5 0 -1
BITMAP
07E8
3638
4073
4882
2532
ENDCHAR
STARTCHAR A
ENCODING 65
SWIDTH 996 0
DWIDTH 9 0
BBX 9 6 0 0
BITMAP
0000134460
0000100260
0000003410
00005FFC00
2000120500
4643100640
ENDCHAR
STARTCHAR B
ENCODING 66
SWIDTH 638 0
DWIDTH 6 0
BBX 6 7 0 0
BITMAP
000010
002586
010506
002352
005026
323006
153232
ENDCHAR
STARTCHAR C
ENCODING 67
SWIDTH 557 0
DWIDTH 5 0
BBX 6 6 0 0
BITMAP
002345
040000
230000
520000
340010
053340
ENDCHAR
STARTCHAR D
ENCODING 68
SWIDTH 799 0
DWIDTH 7 0
BBX 8 6 0 0
BITMAP
01347600
01006640
00024070
00050041
00140030
56754320
ENDCHAR
STARTCHAR E
ENCODING 69
SWIDTH 494 0
DWIDTH 4 0
BBX 5 6 0 0
BITMAP
003250
007000
04C400
371000
600010
242310
ENDCHAR
STARTCHAR F
ENCODING 70
SWIDTH 626 0
DWIDTH 6 0
BBX 8 6 0 0
BITMAP
001348B1
00100811
00002300
000EFD00
10004000
44220000
ENDCHAR
STARTCHAR G
ENCODING 71
SWIDTH 571 0
DWIDTH 5 0
BBX 8 8 -1 -2
BITMAP
00003CD1
00039233
00080010
00250000
00240500
12012600
41004100
16332000
ENDCHAR
STARTCHAR H
ENCODING 72
SWIDTH 865 0
DWIDTH 8 0
BBX 11 8 0 -1
BITMAP
000000000310
001343002110
001030030000
000074330000
07DFABE50000
571000500000
214200720000
031000000000
ENDCHAR
STARTCHAR I
ENCODING 73
SWIDTH 554 0
DWIDTH 5 0
BBX 7 6 0 0
BITMAP
00004830
00044400
00041300
11033000
61163000
2ED50000
ENDCHAR
STARTCHAR J
ENCODING 74
SWIDTH 634 0
DWIDTH 6 0
BBX 8 8 0 -2
BITMAP
00000582
00004230
00003410
00001500
11101400
30008000
703A2000
8EA20000
ENDCHAR
STARTCHAR K
ENCODING 75
SWIDTH 936 0
DWIDTH 8 0
BBX 9 6 0 0
BITMAP
0013471360
0020143000
0010540000
0100550000
4001333000
4532006410
ENDCHAR
STARTCHAR L
ENCODING 76
SWIDTH 657 0
DWIDTH 6 0
BBX 7 6 0 0
BITMAP
00003D50
00017140
00050000
00040000
14230200
66EFE200
ENDCHAR
STARTCHAR M
ENCODING 77
SWIDTH 1219 0
DWIDTH 11 0
BBX 12 6 0 0
BITMAP
000034573043
000100070460
000000343420
210002353500
500023450600
275420510730
ENDCHAR
STARTCHAR N
ENCODING 78
SWIDTH 990 0
DWIDTH 9 0
BBX 12 6 0 0
BITMAP
000457000153
000005700400
000003442100
200012073000
400030054000
286500014000
ENDCHAR
STARTCHAR O
ENCODING 79
SWIDTH 606 0
DWIDTH 5 0
BBX 6 6 0 0
BITMAP
007ED3
074139
230006
510005
481282
09EC30
ENDCHAR
STARTCHAR P
ENCODING 80
SWIDTH 783 0
DWIDTH 7 0
BBX 8 7 0 0
BITMAP
00000010
00013784
00020507
00002205
00005222
30002000
35310000
ENDCHAR
STARTCHAR Q
ENCODING 81
SWIDTH 563 0
DWIDTH 5 0
BBX 7 8 0 -2
BITMAP
007AA100
05103600
05000600
04000100
06211000
10430000
16C93000
0006DE60
ENDCHAR
STARTCHAR R
ENCODING 82
SWIDTH 854 0
DWIDTH 8 0
BBX 8 7 0 0
BITMAP
00000010
00012891
00014224
00006021
00005600
20041600
45310262
ENDCHAR
STARTCHAR S
ENCODING 83
SWIDTH 480 0
DWIDTH 4 0
BBX 5 6 0 0
BITMAP
001030
006100
002800
000710
400310
453200
ENDCHAR
STARTCHAR T
ENCODING 84
SWIDTH 577 0
DWIDTH 5 0
BBX 8 6 0 0
BITMAP
002CED71
00411110
02001100
00003000
20012000
45310000
ENDCHAR
STARTCHAR U
ENCODING 85
SWIDTH 752 0
DWIDTH 7 0
BBX 8 6 0 0
BITMAP
02461024
11010070
10200370
00400920
00719600
00DC2640
ENDCHAR
STARTCHAR V
ENCODING 86
SWIDTH 661 0
DWIDTH 6 0
BBX 7 6 0 0
BITMAP
03420780
11020170
10031010
00031210
00052200
00052000
ENDCHAR
STARTCHAR W
ENCODING 87
SWIDTH 822 0
DWIDTH 7 0
BBX 9 6 0 0
BITMAP
0364020340
2005150040
0003450400
0005152300
0005064000
0021070000
ENDCHAR
STARTCHAR X
ENCODING 88
SWIDTH 813 0
DWIDTH 7 0
BBX 8 6 0 0
BITMAP
00091146
00145101
00007000
00008000
10016711
55300AB0
ENDCHAR
STARTCHAR Y
ENCODING 89
SWIDTH 662 0
DWIDTH 6 0
BBX 8 7 0 -1
BITMAP
00153006
00040053
01030180
31053A20
500CB300
71135000
2ED70000
ENDCHAR
STARTCHAR Z
ENCODING 90
SWIDTH 625 0
DWIDTH 6 0
BBX 7 7 0 0
BITMAP
00000010
001CFC10
00313300
00022000
00220000
01102200
3EFE6000
ENDCHAR
STARTCHAR bracketleft
ENCODING 91
SWIDTH 318 0
DWIDTH 3 0
BBX 4 7 0 -1
BITMAP
0072
0140
0410
0500
0500
0600
3600
ENDCHAR
STARTCHAR backslash
ENCODING 92
SWIDTH 212 0
DWIDTH 2 0
BBX 2 7 0 -1
BITMAP
20
30
30
21
03
03
01
ENDCHAR
STARTCHAR bracketright
ENCODING 93
SWIDTH 339 0
DWIDTH 3 0
BBX 4 7 0 -1
BITMAP
0063
0060
0050
0050
0140
0510
2700
ENDCHAR
STARTCHAR asciicircum
ENCODING 94
SWIDTH 272 0
DWIDTH 2 0
BBX 3 2 0 2
BITMAP
0800
3330
ENDCHAR
STARTCHAR underscore
ENCODING 95
SWIDTH 356 0
DWIDTH 3 0
BBX 4 2 -1 -1
BITMAP
0001
1B85
ENDCHAR
STARTCHAR grave
ENCODING 96
SWIDTH 155 0
DWIDTH 1 0
BBX 2 2 0 2
BITMAP
40
02
ENDCHAR
STARTCHAR a
ENCODING 97
SWIDTH 294 0
DWIDTH 3 0
BBX 3 2 0 0
BITMAP
4E40
6010
ENDCHAR
STARTCHAR b
ENCODING 98
SWIDTH 247 0
DWIDTH 2 0
BBX 5 7 0 0
BITMAP
001440
003000
030000
040000
320000
621000
630000
ENDCHAR
STARTCHAR c
ENCODING 99
SWIDTH 203 0
DWIDTH 2 0
BBX 2 3 0 0
BITMAP
14
00
62
ENDCHAR
STARTCHAR d
ENCODING 100
SWIDTH 285 0
DWIDTH 3 0
BBX 6 7 0 0
BITMAP
000034
000100
000100
001000
012000
122000
672000
ENDCHAR
STARTCHAR e
ENCODING 101
SWIDTH 206 0
DWIDTH 2 0
BBX 2 2 0 0
BITMAP
35
61
ENDCHAR
STARTCHAR f
ENCODING 102
SWIDTH 156 0
DWIDTH 1 0
BBX 8 9 -3 -2
BITMAP
00000145
00000300
00002100
00004000
00005000
0007D200
00041000
00030000
21200000
ENDCHAR
STARTCHAR g
ENCODING 103
SWIDTH 210 0
DWIDTH 2 0
BBX 3 5 -1 -2
BITMAP
0110
0060
0950
6150
AE60
ENDCHAR
STARTCHAR h
ENCODING 104
SWIDTH 292 0
DWIDTH 3 0
BBX 5 7 0 0
BITMAP
000360
003000
022000
050000
150000
505000
542000
ENDCHAR
STARTCHAR i
ENCODING 105
SWIDTH 149 0
DWIDTH 1 0
BBX 2 4 0 0
BITMAP
02
00
31
50
ENDCHAR
STARTCHAR j
ENCODING 106
SWIDTH 136 0
DWIDTH 1 0
BBX 5 6 -3 -2
BITMAP
000020
000010
000200
000200
001000
321000
ENDCHAR
STARTCHAR k
ENCODING 107
SWIDTH 259 0
DWIDTH 2 0
BBX 5 7 0 0
BITMAP
000360
003000
031000
050000
230000
532000
450000
ENDCHAR
STARTCHAR l
ENCODING 108
SWIDTH 134 0
DWIDTH 1 0
BBX 5 8 0 -1
BITMAP
001520
004000
040000
050000
320000
600000
600000
200000
ENDCHAR
STARTCHAR m
ENCODING 109
SWIDTH 413 0
DWIDTH 4 0
BBX 4 3 0 -1
BITMAP
4115
4523
0001
ENDCHAR
STARTCHAR n
ENCODING 110
SWIDTH 291 0
DWIDTH 3 0
BBX 3 3 0 0
BITMAP
1000
5040
5420
ENDCHAR
STARTCHAR o
ENCODING 111
SWIDTH 225 0
DWIDTH 2 0
BBX 2 2 0 0
BITMAP
14
41
ENDCHAR
STARTCHAR p
ENCODING 112
SWIDTH 261 0
DWIDTH 2 0
BBX 4 5 -1 -2
BITMAP
0350
0033
0BB0
1300
4200
ENDCHAR
STARTCHAR q
ENCODING 113
SWIDTH 269 0
DWIDTH 2 0
BBX 3 5 0 -2
BITMAP
0100
1140
6600
0500
3300
ENDCHAR
STARTCHAR r
ENCODING 114
SWIDTH 195 0
DWIDTH 2 0
BBX 1 2 0 0
BITMAP
50
40
ENDCHAR
STARTCHAR s
ENCODING 115
SWIDTH 188 0
DWIDTH 2 0
BBX 2 2 0 0
BITMAP
42
34
ENDCHAR
STARTCHAR t
ENCODING 116
SWIDTH 171 0
DWIDTH 2 0
BBX 2 3 0 0
BITMAP
04
5B
61
ENDCHAR
STARTCHAR u
ENCODING 117
SWIDTH 299 0
DWIDTH 3 0
BBX 3 2 0 0
BITMAP
4230
5220
ENDCHAR
STARTCHAR v
ENCODING 118
SWIDTH 271 0
DWIDTH 2 0
BBX 3 2 0 0
BITMAP
4140
5400
ENDCHAR
STARTCHAR w
ENCODING 119
SWIDTH 369 0
DWIDTH 3 0
BBX 4 2 0 0
BITMAP
5322
4310
ENDCHAR
STARTCHAR x
ENCODING 120
SWIDTH 263 0
DWIDTH 2 0
BBX 3 2 0 0
BITMAP
3960
3510
ENDCHAR
STARTCHAR y
ENCODING 121
SWIDTH 280 0
DWIDTH 3 0
BBX 5 4 -2 -2
BITMAP
004140
004310
100400
433000
ENDCHAR
STARTCHAR z
ENCODING 122
SWIDTH 238 0
DWIDTH 2 0
BBX 2 2 0 0
BITMAP
25
53
ENDCHAR
STARTCHAR braceleft
ENCODING 123
SWIDTH 291 0
DWIDTH 3 0
BBX 4 7 0 -1
BITMAP
0031
0140
0410
0500
0500
2400
2400
ENDCHAR
STARTCHAR bar
ENCODING 124
SWIDTH 162 0
DWIDTH 1 0
BBX 1 8 0 -2
BITMAP
30
30
30
30
30
30
30
30
ENDCHAR
STARTCHAR braceright
ENCODING 125
SWIDTH 285 0
DWIDTH 3 0
BBX 3 7 0 -1
BITMAP
0130
0050
0140
0240
0400
0500
3200
ENDCHAR
STARTCHAR asciitilde
ENCODING 126
SWIDTH 383 0
DWIDTH 3 0
BBX 4 2 0 1
BITMAP
2C21
15B0
ENDCHAR
STARTCHAR space.dup1
ENCODING 160
SWIDTH 150 0
DWIDTH 1 0
BBX 1 1 0 0
BITMAP
00
ENDCHAR
STARTCHAR exclamdown
ENCODING 161
SWIDTH 189 0
DWIDTH 2 0
BBX 2 4 -1 -3
BITMAP
02
04
32
40
ENDCHAR
STARTCHAR cent
ENCODING 162
SWIDTH 194 0
DWIDTH 2 0
BBX 2 4 0 -1
BITMAP
18
83
A2
20
ENDCHAR
STARTCHAR sterling
ENCODING 163
SWIDTH 344 0
DWIDTH 3 0
BBX 3 3 0 0
BITMAP
0250
0510
5730
ENDCHAR
STARTCHAR currency
ENCODING 164
SWIDTH 344 0
DWIDTH 3 0
BBX 3 3 0 0
BITMAP
1210
3120
7940
ENDCHAR
STARTCHAR yen
ENCODING 165
SWIDTH 309 0
DWIDTH 3 0
BBX 3 3 0 0
BITMAP
2320
7F00
9D00
ENDCHAR
STARTCHAR brokenbar
ENCODING 166
SWIDTH 162 0
DWIDTH 1 0
BBX 1 8 0 -2
BITMAP
30
30
30
00
00
30
30
30
ENDCHAR
STARTCHAR section
ENCODING 167
SWIDTH 395 0
DWIDTH 4 0
BBX 6 8 -1 -3
BITMAP
000451
003412
005500
005500
005600
103600
535300
021000
ENDCHAR
STARTCHAR dieresis
ENCODING 168
SWIDTH 174 0
DWIDTH 2 0
BBX 2 1 0 3
BITMAP
22
ENDCHAR
STARTCHAR copyright
ENCODING 169
SWIDTH 331 0
DWIDTH 3 0
BBX 3 3 0 1
BITMAP
0310
3240
1100
ENDCHAR
STARTCHAR ordfeminine
ENCODING 170
SWIDTH 226 0
DWIDTH 2 0
BBX 2 2 0 1
BITMAP
34
10
ENDCHAR
STARTCHAR guillemotleft
ENCODING 171
SWIDTH 289 0
DWIDTH 3 0
BBX 3 3 0 0
BITMAP
0010
2630
5C10
ENDCHAR
STARTCHAR logicalnot
ENCODING 172
SWIDTH 265 0
DWIDTH 2 0
BBX 3 2 0 1
BITMAP
CD20
0400
ENDCHAR
STARTCHAR registered
ENCODING 174
SWIDTH 331 0
DWIDTH 3 0
BBX 3 3 0 1
BITMAP
0100
0310
3630
ENDCHAR
STARTCHAR degree
ENCODING 176
SWIDTH 104 0
DWIDTH 1 0
BBX 2 2 0 2
BITMAP
25
35
ENDCHAR
STARTCHAR plusminus
ENCODING 177
SWIDTH 301 0
DWIDTH 3 0
BBX 3 3 0 0
BITMAP
0300
7F60
2500
ENDCHAR
STARTCHAR twosuperior
ENCODING 178
SWIDTH 215 0
DWIDTH 2 0
BBX 2 2 0 1
BITMAP
04
34
ENDCHAR
STARTCHAR threesuperior
ENCODING 179
SWIDTH 190 0
DWIDTH 2 0
BBX 2 2 0 1
BITMAP
14
23
ENDCHAR
STARTCHAR acute
ENCODING 180
SWIDTH 157 0
DWIDTH 1 0
BBX 2 2 0 2
BITMAP
42
30
ENDCHAR
STARTCHAR mu
ENCODING 181
SWIDTH 324 0
DWIDTH 3 0
BBX 4 4 -1 -2
BITMAP
0146
0876
0400
1100
ENDCHAR
STARTCHAR paragraph
ENCODING 182
SWIDTH 392 0
DWIDTH 4 0
BBX 5 5 -1 -2
BITMAP
005850
01F710
00B400
105300
643000
ENDCHAR
STARTCHAR periodcentered
ENCODING 183
SWIDTH 112 0
DWIDTH 1 0
BBX 1 1 0 1
BITMAP
50
ENDCHAR
STARTCHAR cedilla
ENCODING 184
SWIDTH 115 0
DWIDTH 1 0
BBX 1 1 0 -1
BITMAP
20
ENDCHAR
STARTCHAR onesuperior
ENCODING 185
SWIDTH 174 0
DWIDTH 2 0
BBX 2 3 0 1
BITMAP
51
32
40
ENDCHAR
STARTCHAR ordmasculine
ENCODING 186
SWIDTH 178 0
DWIDTH 2 0
BBX 2 2 0 1
BITMAP
32
10
ENDCHAR
STARTCHAR guillemotright
ENCODING 187
SWIDTH 276 0
DWIDTH 2 0
BBX 3 2 0 0
BITMAP
4710
3300
ENDCHAR
STARTCHAR onequarter
ENCODING 188
SWIDTH 435 0
DWIDTH 4 0
BBX 4 4 0 -1
BITMAP
0521
2321
1374
1000
ENDCHAR
STARTCHAR onehalf
ENCODING 189
SWIDTH 434 0
DWIDTH 4 0
BBX 4 4 0 -1
BITMAP
0421
2334
1342
1000
ENDCHAR
STARTCHAR threequarters
ENCODING 190
SWIDTH 476 0
DWIDTH 4 0
BBX 4 4 0 -1
BITMAP
0513
1334
0324
0100
ENDCHAR
STARTCHAR questiondown
ENCODING 191
SWIDTH 285 0
DWIDTH 3 0
BBX 3 3 -1 -2
BITMAP
0040
3200
4520
ENDCHAR
STARTCHAR Agrave
ENCODING 192
SWIDTH 996 0
DWIDTH 9 0
BBX 9 7 0 0
BITMAP
0000000130
0000134460
0000100260
0000003410
00005FFC00
2000120500
4643100640
ENDCHAR
STARTCHAR Aacute
ENCODING 193
SWIDTH 996 0
DWIDTH 9 0
BBX 10 7 0 0
BITMAP
0000000051
0000134460
0000100260
0000003410
00005FFC00
2000120500
4643100640
ENDCHAR
STARTCHAR Acircumflex
ENCODING 194
SWIDTH 996 0
DWIDTH 9 0
BBX 10 8 0 0
BITMAP
0000000062
0000000000
0000134460
0000100260
0000003410
00005FFC00
2000120500
4643100640
ENDCHAR
STARTCHAR Atilde
ENCODING 195
SWIDTH 996 0
DWIDTH 9 0
BBX 10 7 0 0
BITMAP
0000000193
0000134460
0000100260
0000003410
00005FFC00
2000120500
4643100640
ENDCHAR
STARTCHAR Adieresis
ENCODING 196
SWIDTH 996 0
DWIDTH 9 0
BBX 10 7 0 0
BITMAP
0000000022
0000134460
0000100260
0000003410
00005FFC00
2000120500
4643100640
ENDCHAR
STARTCHAR Aring
ENCODING 197
SWIDTH 996 0
DWIDTH 9 0
BBX 10 7 0 0
BITMAP
0000000001
0000134460
0000100260
0000003410
00005FFC00
2000120500
4643100640
ENDCHAR
STARTCHAR AE
ENCODING 198
SWIDTH 1271 0
DWIDTH 11 0
BBX 12 6 0 0
BITMAP
000013457325
000010026700
000000326410
00003FFF2000
200022050001
464310026340
ENDCHAR
STARTCHAR Ccedilla
ENCODING 199
SWIDTH 557 0
DWIDTH 5 0
BBX 6 7 0 -1
BITMAP
001235
020000
220000
530010
3B2150
06C300
001000
ENDCHAR
STARTCHAR Egrave
ENCODING 200
SWIDTH 463 0
DWIDTH 4 0
BBX 5 7 0 0
BITMAP
000400
003340
026000
07D000
640000
600100
432300
ENDCHAR
STARTCHAR Eacute
ENCODING 201
SWIDTH 463 0
DWIDTH 4 0
BBX 5 7 0 0
BITMAP
000310
003340
026000
07D000
640000
600100
432300
ENDCHAR
STARTCHAR Ecircumflex
ENCODING 202
SWIDTH 463 0
DWIDTH 4 0
BBX 5 8 0 0
BITMAP
001710
000000
003340
026000
07D000
640000
600100
432300
ENDCHAR
STARTCHAR Edieresis
ENCODING 203
SWIDTH 463 0
DWIDTH 4 0
BBX 5 7 0 0
BITMAP
000210
003340
026000
07D000
640000
600100
432300
ENDCHAR
STARTCHAR Igrave
ENCODING 204
SWIDTH 514 0
DWIDTH 5 0
BBX 7 8 0 0
BITMAP
00001000
00000000
00006710
00063200
00134000
20034000
70271000
7EB20000
ENDCHAR
STARTCHAR Iacute
ENCODING 205
SWIDTH 514 0
DWIDTH 5 0
BBX 7 8 0 0
BITMAP
00001300
00000000
00006710
00063200
00134000
20034000
70271000
7EB20000
ENDCHAR
STARTCHAR Icircumflex
ENCODING 206
SWIDTH 514 0
DWIDTH 5 0
BBX 7 8 0 0
BITMAP
00002700
00000000
00006710
00063200
00134000
20034000
70271000
7EB20000
ENDCHAR
STARTCHAR Idieresis
ENCODING 207
SWIDTH 514 0
DWIDTH 5 0
BBX 7 7 0 0
BITMAP
00001300
00006710
00063200
00134000
20034000
70271000
7EB20000
ENDCHAR
STARTCHAR Eth
ENCODING 208
SWIDTH 800 0
DWIDTH 7 0
BBX 8 7 0 -1
BITMAP
01346600
01005240
00032060
007FF152
00060020
33400240
00025400
ENDCHAR
STARTCHAR Ntilde
ENCODING 209
SWIDTH 796 0
DWIDTH 7 0
BBX 12 7 -2 0
BITMAP
000000038200
000356200055
000003800300
000003170300
110003063000
310030017000
186510005000
ENDCHAR
STARTCHAR Ograve
ENCODING 210
SWIDTH 608 0
DWIDTH 5 0
BBX 6 6 0 0
BITMAP
007ED3
065139
140006
410005
481182
09EC30
ENDCHAR
STARTCHAR Oacute
ENCODING 211
SWIDTH 608 0
DWIDTH 5 0
BBX 6 8 0 0
BITMAP
000220
000000
007ED3
065139
140006
410005
481182
09EC30
ENDCHAR
STARTCHAR Ocircumflex
ENCODING 212
SWIDTH 608 0
DWIDTH 5 0
BBX 6 8 0 0
BITMAP
000240
000000
007ED3
065139
140006
410005
481182
09EC30
ENDCHAR
STARTCHAR Otilde
ENCODING 213
SWIDTH 608 0
DWIDTH 5 0
BBX 6 7 0 0
BITMAP
000820
007ED3
065139
140006
410005
481182
09EC30
ENDCHAR
STARTCHAR Odieresis
ENCODING 214
SWIDTH 608 0
DWIDTH 5 0
BBX 6 8 0 0
BITMAP
000220
000000
007ED3
065139
140006
410005
481182
09EC30
ENDCHAR
STARTCHAR multiply
ENCODING 215
SWIDTH 301 0
DWIDTH 3 0
BBX 3 3 0 0
BITMAP
0220
0300
3600
ENDCHAR
STARTCHAR Oslash
ENCODING 216
SWIDTH 605 0
DWIDTH 5 0
BBX 6 7 0 0
BITMAP
000001
008E83
086355
261906
519117
4132A1
07EC20
ENDCHAR
STARTCHAR Ugrave
ENCODING 217
SWIDTH 717 0
DWIDTH 6 0
BBX 8 7 0 0
BITMAP
00001300
03560051
20100060
20200720
02103900
05338500
03EA1720
ENDCHAR
STARTCHAR Uacute
ENCODING 218
SWIDTH 717 0
DWIDTH 6 0
BBX 8 7 0 0
BITMAP
00000310
03560051
20100060
20200720
02103900
05338500
03EA1720
ENDCHAR
STARTCHAR Ucircumflex
ENCODING 219
SWIDTH 718 0
DWIDTH 6 0
BBX 8 7 0 0
BITMAP
00001610
03560051
20100060
20200720
02103900
05339500
03EA1720
ENDCHAR
STARTCHAR Udieresis
ENCODING 220
SWIDTH 718 0
DWIDTH 6 0
BBX 8 7 0 0
BITMAP
00000300
03560051
20100060
20200720
02103900
05338500
03EA1720
ENDCHAR
STARTCHAR Yacute
ENCODING 221
SWIDTH 662 0
DWIDTH 6 0
BBX 8 8 0 -1
BITMAP
00000220
00153006
00040053
01030180
31053A20
500CB300
71135000
2ED70000
ENDCHAR
STARTCHAR Thorn
ENCODING 222
SWIDTH 745 0
DWIDTH 7 0
BBX 7 7 0 0
BITMAP
00000010
00000400
00013E80
000145A0
10008020
30011720
35320000
ENDCHAR
STARTCHAR germandbls
ENCODING 223
SWIDTH 304 0
DWIDTH 3 0
BBX 8 9 -3 -2
BITMAP
00000591
00001519
000023C4
00003C30
00014100
00010100
0001A500
00000000
31000000
ENDCHAR
STARTCHAR agrave
ENCODING 224
SWIDTH 294 0
DWIDTH 3 0
BBX 3 4 0 0
BITMAP
0300
0020
4E40
6010
ENDCHAR
STARTCHAR aacute
ENCODING 225
SWIDTH 294 0
DWIDTH 3 0
BBX 3 4 0 0
BITMAP
0060
0210
4E40
6010
ENDCHAR
STARTCHAR acircumflex
ENCODING 226
SWIDTH 294 0
DWIDTH 3 0
BBX 3 5 0 0
BITMAP
0110
0120
0000
4E40
6010
ENDCHAR
STARTCHAR atilde
ENCODING 227
SWIDTH 294 0
DWIDTH 3 0
BBX 3 4 0 0
BITMAP
0730
0660
4E40
6010
ENDCHAR
STARTCHAR adieresis
ENCODING 228
SWIDTH 284 0
DWIDTH 3 0
BBX 3 4 0 0
BITMAP
0220
0000
4E40
6010
ENDCHAR
STARTCHAR aring
ENCODING 229
SWIDTH 294 0
DWIDTH 3 0
BBX 3 4 0 0
BITMAP
0330
0520
4E40
6010
ENDCHAR
STARTCHAR ae
ENCODING 230
SWIDTH 363 0
DWIDTH 3 0
BBX 4 3 0 0
BITMAP
0120
1262
6530
ENDCHAR
STARTCHAR ccedilla
ENCODING 231
SWIDTH 203 0
DWIDTH 2 0
BBX 2 4 0 -1
BITMAP
14
00
62
20
ENDCHAR
STARTCHAR egrave
ENCODING 232
SWIDTH 206 0
DWIDTH 2 0
BBX 2 4 0 0
BITMAP
03
01
35
61
ENDCHAR
STARTCHAR eacute
ENCODING 233
SWIDTH 206 0
DWIDTH 2 0
BBX 3 4 0 0
BITMAP
0520
0300
3500
6100
ENDCHAR
STARTCHAR ecircumflex
ENCODING 234
SWIDTH 206 0
DWIDTH 2 0
BBX 2 5 0 0
BITMAP
02
02
00
35
61
ENDCHAR
STARTCHAR edieresis
ENCODING 235
SWIDTH 206 0
DWIDTH 2 0
BBX 3 4 0 0
BITMAP
0310
0000
3500
6100
ENDCHAR
STARTCHAR igrave
ENCODING 236
SWIDTH 149 0
DWIDTH 1 0
BBX 2 4 0 0
BITMAP
12
02
31
50
ENDCHAR
STARTCHAR iacute
ENCODING 237
SWIDTH 149 0
DWIDTH 1 0
BBX 2 4 0 0
BITMAP
06
03
31
50
ENDCHAR
STARTCHAR icircumflex
ENCODING 238
SWIDTH 149 0
DWIDTH 1 0
BBX 2 5 0 0
BITMAP
02
12
00
31
50
ENDCHAR
STARTCHAR idieresis
ENCODING 239
SWIDTH 149 0
DWIDTH 1 0
BBX 2 4 0 0
BITMAP
13
00
31
50
ENDCHAR
STARTCHAR eth
ENCODING 240
SWIDTH 234 0
DWIDTH 2 0
BBX 2 6 0 0
BITMAP
20
51
25
03
12
63
ENDCHAR
STARTCHAR ntilde
ENCODING 241
SWIDTH 291 0
DWIDTH 3 0
BBX 3 4 0 0
BITMAP
0730
1660
5040
5420
ENDCHAR
STARTCHAR ograve
ENCODING 242
SWIDTH 225 0
DWIDTH 2 0
BBX 3 4 0 0
BITMAP
0400
0010
1400
4100
ENDCHAR
STARTCHAR oacute
ENCODING 243
SWIDTH 225 0
DWIDTH 2 0
BBX 3 4 0 0
BITMAP
0430
0300
1400
4100
ENDCHAR
STARTCHAR ocircumflex
ENCODING 244
SWIDTH 225 0
DWIDTH 2 0
BBX 3 5 0 0
BITMAP
0200
0210
0000
1400
4100
ENDCHAR
STARTCHAR otilde
ENCODING 245
SWIDTH 225 0
DWIDTH 2 0
BBX 3 4 0 0
BITMAP
0720
1920
1400
4100
ENDCHAR
STARTCHAR odieresis
ENCODING 246
SWIDTH 225 0
DWIDTH 2 0
BBX 3 4 0 0
BITMAP
0310
0000
1400
4100
ENDCHAR
STARTCHAR divide
ENCODING 247
SWIDTH 301 0
DWIDTH 3 0
BBX 3 4 0 -1
BITMAP
0100
0000
1310
0100
ENDCHAR
STARTCHAR oslash
ENCODING 248
SWIDTH 225 0
DWIDTH 2 0
BBX 2 2 0 0
BITMAP
16
73
ENDCHAR
STARTCHAR ugrave
ENCODING 249
SWIDTH 299 0
DWIDTH 3 0
BBX 3 4 0 0
BITMAP
0310
0020
4230
5220
ENDCHAR
STARTCHAR uacute
ENCODING 250
SWIDTH 299 0
DWIDTH 3 0
BBX 3 4 0 0
BITMAP
0060
0120
4230
5220
ENDCHAR
STARTCHAR ucircumflex
ENCODING 251
SWIDTH 299 0
DWIDTH 3 0
BBX 3 5 0 0
BITMAP
0110
0120
0000
4230
5220
ENDCHAR
STARTCHAR udieresis
ENCODING 252
SWIDTH 299 0
DWIDTH 3 0
BBX 3 4 0 0
BITMAP
0220
0000
4230
5220
ENDCHAR
STARTCHAR yacute
ENCODING 253
SWIDTH 280 0
DWIDTH 3 0
BBX 5 6 -2 -2
BITMAP
000060
000120
004140
004310
100400
433000
ENDCHAR
STARTCHAR thorn
ENCODING 254
SWIDTH 261 0
DWIDTH 2 0
BBX 4 6 -1 -2
BITMAP
0050
0050
0133
09B0
1300
3200
ENDCHAR
STARTCHAR ydieresis
ENCODING 255
SWIDTH 280 0
DWIDTH 3 0
BBX 5 6 -2 -2
BITMAP
000220
000000
004140
004310
100400
433000
ENDCHAR
STARTCHAR dotlessi
ENCODING 305
SWIDTH 149 0
DWIDTH 1 0
BBX 2 2 0 0
BITMAP
31
50
ENDCHAR
STARTCHAR Lslash
ENCODING 321
SWIDTH 657 0
DWIDTH 6 0
BBX 7 6 0 0
BITMAP
00005E50
00026140
001A3000
24380000
76E30200
8C4CE200
ENDCHAR
STARTCHAR lslash
ENCODING 322
SWIDTH 134 0
DWIDTH 1 0
BBX 5 8 0 -1
BITMAP
001520
004000
030000
161000
320000
600000
600000
200000
ENDCHAR
STARTCHAR OE
ENCODING 338
SWIDTH 827 0
DWIDTH 7 0
BBX 8 6 0 0
BITMAP
008ED525
07413900
24003C40
51037100
48160001
09EC5241
ENDCHAR
STARTCHAR oe
ENCODING 339
SWIDTH 345 0
DWIDTH 3 0
BBX 3 2 0 0
BITMAP
1450
5620
ENDCHAR
STARTCHAR Scaron
ENCODING 352
SWIDTH 480 0
DWIDTH 4 0
BBX 5 8 0 0
BITMAP
000320
000000
001030
006100
002800
000710
400310
453200
ENDCHAR
STARTCHAR scaron
ENCODING 353
SWIDTH 188 0
DWIDTH 2 0
BBX 2 4 0 0
BITMAP
11
00
42
34
ENDCHAR
STARTCHAR Ydieresis
ENCODING 376
SWIDTH 662 0
DWIDTH 6 0
BBX 8 8 0 -1
BITMAP
00000210
00153006
00040053
01030180
31053A20
500CB300
71135000
2ED70000
ENDCHAR
STARTCHAR Zcaron
ENCODING 381
SWIDTH 625 0
DWIDTH 6 0
BBX 7 8 0 0
BITMAP
00004100
00000010
001CFC10
00313300
00022000
00220000
01102200
3EFE6000
ENDCHAR
STARTCHAR zcaron
ENCODING 382
SWIDTH 248 0
DWIDTH 2 0
BBX 2 2 0 0
BITMAP
25
53
ENDCHAR
STARTCHAR florin
ENCODING 402
SWIDTH 214 0
DWIDTH 2 0
BBX 4 4 -1 -1
BITMAP
01D3
09B0
0400
2200
ENDCHAR
STARTCHAR circumflex
ENCODING 710
SWIDTH 196 0
DWIDTH 2 0
BBX 2 2 0 3
BITMAP
10
12
ENDCHAR
STARTCHAR caron
ENCODING 711
SWIDTH 196 0
DWIDTH 2 0
BBX 1 1 1 3
BITMAP
10
ENDCHAR
STARTCHAR breve
ENCODING 728
SWIDTH 198 0
DWIDTH 2 0
BBX 2 1 0 3
BITMAP
12
ENDCHAR
STARTCHAR dotaccent
ENCODING 729
SWIDTH 89 0
DWIDTH 1 0
BBX 1 1 0 3
BITMAP
00
ENDCHAR
STARTCHAR ring
ENCODING 730
SWIDTH 117 0
DWIDTH 1 0
BBX 1 2 0 2
BITMAP
60
70
ENDCHAR
STARTCHAR ogonek
ENCODING 731
SWIDTH 124 0
DWIDTH 1 0
BBX 1 1 0 -1
BITMAP
30
ENDCHAR
STARTCHAR tilde
ENCODING 732
SWIDTH 222 0
DWIDTH 2 0
BBX 2 2 0 2
BITMAP
73
57
ENDCHAR
STARTCHAR hungarumlaut
ENCODING 733
SWIDTH 253 0
DWIDTH 2 0
BBX 2 2 0 2
BITMAP
58
55
ENDCHAR
STARTCHAR mu.dup2
ENCODING 956
SWIDTH 324 0
DWIDTH 3 0
BBX 4 4 -1 -2
BITMAP
0146
0876
0400
1100
ENDCHAR
STARTCHAR endash
ENCODING 8211
SWIDTH 500 0
DWIDTH 5 0
BBX 5 1 0 1
BITMAP
CFFF40
ENDCHAR
STARTCHAR emdash
ENCODING 8212
SWIDTH 1000 0
DWIDTH 9 0
BBX 9 1 0 1
BITMAP
CFFFFFFFB0
ENDCHAR
STARTCHAR quoteleft
ENCODING 8216
SWIDTH 87 0
DWIDTH 1 0
BBX 1 2 0 2
BITMAP
10
30
ENDCHAR
STARTCHAR quoteright
ENCODING 8217
SWIDTH 87 0
DWIDTH 1 0
BBX 2 2 0 2
BITMAP
12
10
ENDCHAR
STARTCHAR quotesinglbase
ENCODING 8218
SWIDTH 112 0
DWIDTH 1 0
BBX 1 1 0 0
BITMAP
10
ENDCHAR
STARTCHAR quotedblleft
ENCODING 8220
SWIDTH 167 0
DWIDTH 2 0
BBX 2 2 0 2
BITMAP
23
44
ENDCHAR
STARTCHAR quotedblright
ENCODING 8221
SWIDTH 167 0
DWIDTH 2 0
BBX 2 2 0 2
BITMAP
27
23
ENDCHAR
STARTCHAR quotedblbase
ENCODING 8222
SWIDTH 192 0
DWIDTH 2 0
BBX 2 1 0 0
BITMAP
43
ENDCHAR
STARTCHAR dagger
ENCODING 8224
SWIDTH 185 0
DWIDTH 2 0
BBX 3 7 0 -2
BITMAP
0200
0400
7D20
2100
3000
3000
1000
ENDCHAR
STARTCHAR daggerdbl
ENCODING 8225
SWIDTH 185 0
DWIDTH 2 0
BBX 4 7 -1 -2
BITMAP
0020
0040
07E2
0210
1C70
0200
0100
ENDCHAR
STARTCHAR bullet
ENCODING 8226
SWIDTH 207 0
DWIDTH 2 0
BBX 2 1 0 1
BITMAP
56
ENDCHAR
STARTCHAR ellipsis
ENCODING 8230
SWIDTH 376 0
DWIDTH 3 0
BBX 1 1 3 0
BITMAP
00
ENDCHAR
STARTCHAR perthousand
ENCODING 8240
SWIDTH 571 0
DWIDTH 5 0
BBX 5 5 0 -1
BITMAP
000100
463000
334350
136540
200000
ENDCHAR
STARTCHAR guilsinglleft
ENCODING 8249
SWIDTH 189 0
DWIDTH 2 0
BBX 2 2 0 0
BITMAP
22
51
ENDCHAR
STARTCHAR guilsinglright
ENCODING 8250
SWIDTH 176 0
DWIDTH 2 0
BBX 2 2 0 0
BITMAP
42
30
ENDCHAR
STARTCHAR fraction
ENCODING 8260
SWIDTH 220 0
DWIDTH 2 0
BBX 3 4 0 -1
BITMAP
0130
0300
3000
1000
ENDCHAR
STARTCHAR Euro
ENCODING 8364
SWIDTH 360 0
DWIDTH 3 0
BBX 3 4 0 0
BITMAP
0C70
AE00
5000
5110
ENDCHAR
STARTCHAR trademark
ENCODING 8482
SWIDTH 389 0
DWIDTH 4 0
BBX 4 2 0 1
BITMAP
2351
1110
ENDCHAR
STARTCHAR minus
ENCODING 8722
SWIDTH 301 0
DWIDTH 3 0
BBX 3 1 0 1
BITMAP
7F60
ENDCHAR
STARTCHAR fi
ENCODING 64257
SWIDTH 297 0
DWIDTH 3 0
BBX 8 9 -3 -2
BITMAP
00000145
00000300
00002300
00004300
00005000
0008F500
00043100
00140000
22200000
ENDCHAR
STARTCHAR fl
ENCODING 64258
SWIDTH 290 0
DWIDTH 3 0
BBX 9 9 -3 -2
BITMAP
0000019540
0000060000
0000332000
0000500000
0000510000
0008F30000
0004330000
0013000000
2120000000
ENDCHAR
STARTCHAR .notdef
ENCODING -1
SWIDTH 150 0
DWIDTH 1 0
BBX 1 1 0 0
BITMAP
00
ENDCHAR
STARTCHAR .null
ENCODING -1
SWIDTH 0 0
DWIDTH 0 0
BBX 1 1 0 0
BITMAP
00
ENDCHAR
STARTCHAR nonmarkingreturn
ENCODING -1
SWIDTH 150 0
DWIDTH 1 0
BBX 1 1 0 0
BITMAP
00
ENDCHAR
ENDFONT
